<svg xmlns="http://www.w3.org/2000/svg" version="1.1" xmlns:xlink="http://www.w3.org/1999/xlink" xmlns:svgjs="http://svgjs.dev/svgjs" width="100%" height="100%" viewBox="0 0 1000 600"><rect width="1000" height="600" x="0" y="0" fill="#ffffff"/><g><circle r="166.66666666666666" cx="359.70949808756507" cy="381.93178591789547" fill="#fffff" transform="matrix(0.647524475822964,0,0,0.647524475822964,0,52.68982225321332)"/><path d="M383.8000497610358 320.07771579556413Q374.00261301991947 316.2951611043737 369.5379583024487 315.86109745128624Q365.073303584978 315.3960292515497 358.6863669752629 315.05497923840954Q352.3304349121969 314.74493377191857 343.74217549039554 314.74493377191857Q335.15391606859424 314.74493377191857 323.31017924863716 315.86109745128624L323.31017924863716 315.86109745128624L323.31017924863716 449.11863894912807L347.8657801947262 449.80073897540836Q370.87115380836013 448.9016071225844 381.81575877549324 443.9718842053771L381.81575877549324 443.9718842053771Q411.4871099186842 430.3608882264212 411.70414174522796 382.3658500136108L411.70414174522796 382.3658500136108Q411.70414174522796 363.60809929090385 407.48752340095 350.2141351384916Q403.23990051002295 336.8201709860794 398.4341957794121 330.37122528306617Q393.62849104880127 323.89127503340376 383.8000497610358 320.07771579556413ZM307.9009195640333 308.0479516957124L307.9009195640333 308.0479516957124L351.2142712328292 306.93178801634474Q371.0881856349039 306.93178801634474 386.0323771197712 310.2802790544478Q401.0075731512876 313.62877009255084 413.5024054508758 321.65894767466835L413.5024054508758 321.65894767466835Q438.95713824978884 337.9363346654471 438.95713824978884 382.14881818706704L438.95713824978884 382.14881818706704Q438.95713824978884 456.9317847047019 347.8657801947262 456.9317847047019L347.8657801947262 456.9317847047019L280.4618957795777 456.9317847047019L280.4618957795777 451.1339344813197L299.8707419819158 449.3356707756718L299.8707419819158 315.61306107809344L280.4618957795777 313.16370189281434L280.4618957795777 307.3658516694322Q294.0728917585336 308.0479516957124 307.9009195640333 308.0479516957124Z " fill="#ffffff" transform="matrix(0.647524475822964,0,0,0.647524475822964,0,52.68982225321332)"/><path d="M698.9703582573437 336.4175937726068Q690.5075840755625 333.1503201960963 686.651130018042 332.7753871627263Q682.7946759605214 332.3736731984012 677.2778041837907 332.07908295789616Q671.7877133380149 331.8112736483461 664.3693954634789 331.8112736483461Q656.9510775889428 331.8112736483461 646.7207619641314 332.7753871627263L646.7207619641314 332.7753871627263L646.7207619641314 447.87982840733235L667.9312592804944 448.46900888834244Q687.8027100491072 447.6923618906473 697.2563786762234 443.43419386880174L697.2563786762234 443.43419386880174Q722.885729600162 431.67736517955507 723.073196116847 390.2204840612093L723.073196116847 390.2204840612093Q723.073196116847 374.018020833432 719.4309895069666 362.4486586608704Q715.762001966131 350.8792964883088 711.6109576681055 345.308862849668Q707.4599133700799 339.7116482800722 698.9703582573437 336.4175937726068ZM633.4106392794945 326.02659256206533L633.4106392794945 326.02659256206533L670.8235998236348 325.0624790476852Q687.9901765657921 325.0624790476852 700.898585286104 327.9548195908256Q713.8337749373708 330.84716013396604 724.6264901122373 337.78342125131195L724.6264901122373 337.78342125131195Q746.6136344262953 351.8434100026889 746.6136344262953 390.0330175445243L746.6136344262953 390.0330175445243Q746.6136344262953 454.62862300799327 667.9312592804944 454.62862300799327L667.9312592804944 454.62862300799327L609.7095153843163 454.62862300799327L609.7095153843163 449.62058891940757L626.4743781621486 448.06729492401735L626.4743781621486 332.56113971508626L609.7095153843163 330.44544616964095L609.7095153843163 325.43741208105524Q621.4663440735628 326.02659256206533 633.4106392794945 326.02659256206533ZM783.4374144894255 433.7930587250004L783.4374144894255 433.7930587250004Q783.4374144894255 446.3265344119421 793.667730114237 448.6564754050275L793.667730114237 448.6564754050275Q795.9708901763672 449.2188749550825 798.0865837218125 449.2188749550825L798.0865837218125 449.2188749550825Q805.4245588034836 449.2188749550825 813.3249334352097 442.95213711161165Q821.2253080669358 436.68539926814077 821.6270220312608 426.0801506099593L821.6270220312608 426.0801506099593L821.6270220312608 409.50275434881195Q783.4374144894255 409.90446831313704 783.4374144894255 433.7930587250004ZM791.1503226044665 456.9317830701236L791.1503226044665 456.9317830701236Q780.170140912915 456.9317830701236 772.350109074054 450.87929267429274Q764.5300772351928 444.8000213475069 764.5300772351928 433.7930587250004L764.5300772351928 433.7930587250004Q764.7443246828329 418.9564229759283 779.473836708085 411.61844789425726Q794.230129664292 404.30725374354125 821.6270220312608 404.30725374354125L821.6270220312608 404.30725374354125L821.6270220312608 387.7298574823939Q821.6270220312608 363.2253056585655 803.8712648080933 363.2253056585655L803.8712648080933 363.2253056585655Q794.8193101453021 363.2253056585655 789.2220955757064 370.75074725692156L789.2220955757064 370.75074725692156Q785.3656415181857 375.9462478621923 785.3656415181857 383.65915597723335L785.3656415181857 383.65915597723335Q785.3656415181857 386.95321048469884 786.1422885158809 390.6221980255344L786.1422885158809 390.6221980255344Q783.4374144894255 392.55042505429464 780.6521976701051 392.55042505429464Q777.8401999198297 392.55042505429464 775.1353258933743 391.37206409227446L775.1353258933743 391.37206409227446Q768.9757117737234 389.0689040301441 768.9757117737234 382.5075759461682L768.9757117737234 382.5075759461682Q768.9757117737234 373.643087800062 775.3495733410143 367.85840671378116L775.3495733410143 367.85840671378116Q785.7405745515558 358.40473808666485 804.0587313247784 358.40473808666485Q822.3768880980009 358.40473808666485 830.678976694052 366.22476992552595Q838.9810652901033 374.018020833432 838.9810652901033 390.80966454221937L838.9810652901033 390.80966454221937L838.9810652901033 449.2188749550825L855.1567475869255 449.99552195277766L855.3709950345656 454.4411564913083L823.153535095696 456.7443165534386L821.4127745836208 439.57773981128116Q812.5482864375145 456.9317830701236 791.1503226044665 456.9317830701236ZM923.4213405912301 358.2172715699798L923.4213405912301 358.2172715699798Q928.4293746798157 358.2172715699798 931.3217152229561 360.62755535593016Q934.2140557660965 363.0378391418805 934.2140557660965 367.2692262327711L934.2140557660965 367.2692262327711Q934.2140557660965 374.6072013144421 928.6436221274557 376.91036137657244L928.6436221274557 376.91036137657244Q925.5370341366753 374.4197347977571 917.4491929882643 374.4197347977571Q909.3613518398531 374.4197347977571 901.9162530343621 379.72235912684783Q894.497935159826 385.0249834559385 894.497935159826 391.7737780565995L894.497935159826 391.7737780565995L894.497935159826 449.0314084383975L911.8519784186684 449.99552195277766L911.8519784186684 454.62862300799327L862.8696557019666 454.62862300799327L862.8696557019666 449.99552195277766L875.6173788365484 449.2188749550825L875.6173788365484 366.89429319940103L860.3790291231512 366.11764620170595L860.3790291231512 361.6987925941303L894.497935159826 359.55631811773L893.3463551287608 383.2842229438633L894.123002126456 383.2842229438633Q897.3902757029664 372.86644080236687 906.1744210562076 365.55524665165086Q914.9317854784938 358.2172715699798 923.4213405912301 358.2172715699798ZM1048.5686309439625 326.02659256206533L1048.5686309439625 355.1374645101544L1042.7839498576818 355.1374645101544L1036.2226217737057 332.9628536794113L1002.103715737031 332.56113971508626L1002.103715737031 448.25476144070234L1020.0201585459286 449.99552195277766L1020.0201585459286 454.62862300799327L964.3158221595207 454.62862300799327L964.3158221595207 449.99552195277766L982.2322649684182 448.25476144070234L982.2322649684182 332.56113971508626L948.1133589317435 332.9628536794113L941.5520308477676 355.1374645101544L935.9548162781717 355.1374645101544L935.9548162781717 326.02659256206533L992.2751140765447 325.6248785977403L1048.5686309439625 326.02659256206533ZM1091.9537390910684 456.7443165534386Q1072.0822883224557 456.7443165534386 1059.9505265998391 443.2467273521167Q1047.7919839462675 429.7491381507948 1047.7919839462675 407.5745273200517Q1047.7919839462675 385.3999164893086 1060.6200498737142 371.90232728798674Q1073.4481158011608 358.40473808666485 1092.9178526054486 358.40473808666485Q1112.3875894097364 358.40473808666485 1122.0287245535378 367.1888834399061Q1131.6698596973392 375.9462478621923 1131.6698596973392 391.58631153991445L1131.6698596973392 391.58631153991445Q1131.6698596973392 396.1926316641751 1130.893212699644 400.8257327193907L1130.893212699644 400.8257327193907L1068.6275482292604 400.8257327193907L1068.6275482292604 407.5745273200517Q1068.6275482292604 429.1867386007397 1074.7871623489111 440.2740440161113Q1080.973557399517 451.3613494314828 1095.033546150894 451.3613494314828L1095.033546150894 451.3613494314828Q1114.9049969195066 451.3613494314828 1125.6977120943734 434.0073061726404L1125.6977120943734 434.0073061726404Q1129.9290991852638 435.3463527203906 1129.9290991852638 438.051226746846L1129.9290991852638 438.051226746846Q1129.9290991852638 442.8717943187466 1121.0646110391576 449.2188749550825L1121.0646110391576 449.2188749550825Q1116.833223948267 452.32546294586297 1109.120315833226 454.5214992841732Q1101.407407718185 456.7443165534386 1091.9537390910684 456.7443165534386L1091.9537390910684 456.7443165534386ZM1113.3517029241166 387.51561003475393L1113.3517029241166 387.51561003475393Q1113.3517029241166 378.65112188864765 1109.682715383281 372.3040412523118L1109.682715383281 372.3040412523118Q1104.6746812946953 363.8144861395756 1093.5070330864587 363.8144861395756L1093.5070330864587 363.8144861395756Q1072.6714688034658 363.8144861395756 1069.1899477793154 393.8894716020448L1069.1899477793154 393.8894716020448L1112.9767698907465 393.8894716020448Q1113.3517029241166 390.6221980255344 1113.3517029241166 387.51561003475393ZM1197.8187591561982 358.40473808666485L1197.8187591561982 358.40473808666485Q1208.6114743310648 358.40473808666485 1218.6275425082363 363.0378391418805L1218.6275425082363 363.0378391418805Q1224.224757077832 365.55524665165086 1227.5991543781624 370.75074725692156Q1230.9735516784929 375.9462478621923 1230.9735516784929 382.90928991049327Q1230.9735516784929 389.84555102783924 1224.813937558842 392.3361776066546L1224.813937558842 392.3361776066546Q1222.2965300490719 393.3002911210347 1219.5113132297513 393.3002911210347Q1216.699315479476 393.3002911210347 1213.8069749363353 391.37206409227446L1213.8069749363353 391.37206409227446Q1214.5836219340308 387.3281435180689 1214.5836219340308 381.83805267229314Q1214.5836219340308 376.34796182651735 1211.1288818408352 371.33992773793165L1211.1288818408352 371.33992773793165Q1206.0940668212945 363.8144861395756 1196.8546456418183 363.8144861395756L1196.8546456418183 363.8144861395756Q1170.0469337558593 363.8144861395756 1170.0469337558593 407.9762412843767L1170.0469337558593 407.9762412843767Q1170.0469337558593 429.56167163410976 1176.3136715993303 440.4615105327963Q1182.5804094428013 451.3613494314828 1196.667179125133 451.3613494314828L1196.667179125133 451.3613494314828Q1214.5836219340308 451.3613494314828 1225.3763371088971 434.0073061726404L1225.3763371088971 434.0073061726404Q1229.6345051307426 435.3463527203906 1229.6345051307426 438.131569539711Q1229.6345051307426 440.94356728998633 1226.0726413137272 445.0946115880119Q1222.4839965657566 449.2188749550825 1213.7266321434704 452.99498621973805Q1204.9424867902294 456.7443165534386 1193.5605911343528 456.7443165534386L1193.5605911343528 456.7443165534386Q1173.715921296695 456.7443165534386 1161.4770358502583 443.2467273521167Q1149.2113694728664 429.7491381507948 1149.2113694728664 407.5745273200517Q1149.2113694728664 385.3999164893086 1162.4411493646385 371.90232728798674Q1175.6441483254553 358.40473808666485 1197.8187591561982 358.40473808666485ZM1308.1026328289036 359.18138508435993L1308.1026328289036 359.18138508435993Q1338.954265289068 359.18138508435993 1338.954265289068 388.8814375134591L1338.954265289068 388.8814375134591Q1338.954265289068 410.2794013465071 1337.615218741318 449.0314084383975L1337.615218741318 449.0314084383975L1351.3002744593248 449.99552195277766L1351.3002744593248 454.62862300799327L1308.2900993455887 454.62862300799327L1308.2900993455887 449.99552195277766L1318.7078814870852 449.2188749550825Q1320.0737089657905 398.3351061405754 1320.0737089657905 387.4352672418889Q1320.0737089657905 376.53542834320234 1316.0030074606298 371.1256802902916Q1311.959086886424 365.74271316833585 1302.023361502118 365.74271316833585Q1292.1144170487664 365.74271316833585 1283.4373954193452 375.19638179545217Q1274.760373789924 384.6232694916135 1274.760373789924 392.55042505429464L1274.760373789924 392.55042505429464L1274.760373789924 449.0314084383975L1287.4813159935507 449.99552195277766L1287.4813159935507 454.62862300799327L1243.1320943320648 454.62862300799327L1243.1320943320648 449.99552195277766L1255.8530365356914 449.0314084383975L1255.8530365356914 316.1712099706239L1238.873926310219 315.42134390388384L1238.6864597935341 310.9757093653532L1274.760373789924 306.93178879114765Q1273.5820128279038 373.0539073190519 1273.3945463112188 377.4995418575825L1273.3945463112188 377.4995418575825L1274.9478403066091 377.4995418575825Q1280.14334091188 368.63505371147625 1288.927486265121 363.8948289324406Q1297.684850687407 359.18138508435993 1308.1026328289036 359.18138508435993Z " fill="#000000" transform="matrix(0.647524475822964,0,0,0.647524475822964,0,52.68982225321332)"/></g></svg>